# xmcd
#
# Track frame offsets:
#	150
#	10169
#	17988
#	23594
#	29741
#	39565
#	57719
#	66517
#	77475
#	86140
#	105790
#	114561
#	124085
#	129262
#	138612
#	149183
#	156809
#	167165
#	178595
#	188129
#	197425
#	209148
#	222194
#	232734
#	240946
#	251570
#
# Disc length: 3359 seconds
#
# Revision: 1
# Processed by: cddbd v1.5.1PL0 Copyright (c) Steve Scherf et al.
# Submitted via: CDex 1.50Beta5
#
DISCID=720d1d1a
DTITLE=Z-KAI - 速読英単語上級編3
DYEAR=1900
DGENRE=Other
TTITLE0=速読英単語上級編3/1-b
TTITLE1=速読英単語上級編3/2
TTITLE2=速読英単語上級編3/3
TTITLE3=速読英単語上級編3/4
TTITLE4=速読英単語上級編3/5
TTITLE5=速読英単語上級編3/6
TTITLE6=速読英単語上級編3/7
TTITLE7=速読英単語上級編3/8
TTITLE8=速読英単語上級編3/9
TTITLE9=速読英単語上級編3/10
TTITLE10=速読英単語上級編3/11
TTITLE11=速読英単語上級編3/12
TTITLE12=速読英単語上級編3/13
TTITLE13=速読英単語上級編3/14
TTITLE14=速読英単語上級編3/15
TTITLE15=速読英単語上級編3/16
TTITLE16=速読英単語上級編3/17
TTITLE17=速読英単語上級編3/18
TTITLE18=速読英単語上級編3/19
TTITLE19=速読英単語上級編3/20
TTITLE20=速読英単語上級編3/21
TTITLE21=速読英単語上級編3/22
TTITLE22=速読英単語上級編3/23
TTITLE23=速読英単語上級編3/24
TTITLE24=速読英単語上級編3/25
TTITLE25=26
EXTD=
EXTT0=
EXTT1=
EXTT2=
EXTT3=
EXTT4=
EXTT5=
EXTT6=
EXTT7=
EXTT8=
EXTT9=
EXTT10=
EXTT11=
EXTT12=
EXTT13=
EXTT14=
EXTT15=
EXTT16=
EXTT17=
EXTT18=
EXTT19=
EXTT20=
EXTT21=
EXTT22=
EXTT23=
EXTT24=
EXTT25=
PLAYORDER=
